{"title":"WWE.Raw.01.17.11.DSR.XviD-XWT","uid":6110439,"size":795180322,"categoryP":"video","categoryS":"tv_shows","magnet":"?xt=urn:btih:ef7461533840e1e806b1d332f03a118eb68d3194&amp;dn=WWE.Raw.01.17.11.DSR.XviD-XWT&amp;tr=udp%3A%2F%2Ftracker.openbittorrent.com%3A80&amp;tr=udp%3A%2F%2Fopen.demonii.com%3A1337&amp;tr=udp%3A%2F%2Ftracker.coppersurfer.tk%3A6969&amp;tr=udp%3A%2F%2Fexodus.desync.com%3A6969","seeders":0,"leechers":0,"uploader":"SAFCukO09","files":3,"time":1295334076,"description":"[center][img]http://www.latestwwenews.com/wp-content/uploads/2010/05/WWE-Monday-Night-RAW-Results1.jpg[/img][/center]\n\n[center]Format                           : AVI\nFormat/Info                      : Audio Video Interleave\nFile size                        : 758 MiB\nDuration                         : 1h 13mn\nOverall bit rate                 : 1 435 Kbps\n\nVideo\nID                               : 0\nFormat                           : MPEG-4 Visual\nFormat profile                   : Advanced Simple@L5\nFormat settings, BVOP            : Yes\nFormat settings, QPel            : No\nFormat settings, GMC             : No warppoints\nFormat settings, Matrix          : Default (H.263)\nCodec ID                         : XVID\nCodec ID/Hint                    : XviD\nDuration                         : 1h 13mn\nBit rate                         : 1 022 Kbps\nWidth                            : 640 pixels\nHeight                           : 368 pixels\nDisplay aspect ratio             : 16:9\nFrame rate                       : 25.000 fps\nColor space                      : YUV\nChroma subsampling               : 4:2:0\nBit depth                        : 8 bits\nScan type                        : Progressive\nBits/(Pixel*Frame)               : 0.174\nStream size                      : 540 MiB (71%)\nWriting library                  : XviD 1.1.2 (UTC 2006-11-01)\n\nAudio\nID                               : 1\nFormat                           : MPEG Audio\nFormat version                   : Version 1\nFormat profile                   : Layer 3\nMode                             : Joint stereo\nMode extension                   : MS Stereo\nCodec ID                         : 55\nCodec ID/Hint                    : MP3\nDuration                         : 1h 13mn\nBit rate mode                    : Constant\nBit rate                         : 128 Kbps\nChannel(s)                       : 2 channels\nSampling rate                    : 44.1 KHz\nStream size                      : 67.6 MiB (9%)\nAlignment                        : Aligned on interleaves\nInterleave, duration             : 26 ms (0.65 video frame)\nInterleave, preload duration     : 809 ms\n\n[/center]","torrent":{"xt":"urn:btih:ef7461533840e1e806b1d332f03a118eb68d3194","amp;dn":"WWE.Raw.01.17.11.DSR.XviD-XWT","amp;tr":["udp%3A%2F%2Ftracker.openbittorrent.com%3A80","udp%3A%2F%2Fopen.demonii.com%3A1337","udp%3A%2F%2Ftracker.coppersurfer.tk%3A6969","udp%3A%2F%2Fexodus.desync.com%3A6969"],"infoHash":"ef7461533840e1e806b1d332f03a118eb68d3194","infoHashBuffer":{"type":"Buffer","data":[239,116,97,83,56,64,225,232,6,177,211,50,240,58,17,142,182,141,49,148]},"announce":[],"urlList":[]}}